#!OML:ASF F:\VICON\USERDATA\INSTALL\rory3\rory3.ASF
:FULLY-SPECIFIED
:DEGREES
90
root 0.6901216729758677 17.787774024676477 40.345409751290006 -3.2578517976708117 -5.572315510836701 -1.9881917381287908
lfemur -16.480680655966005 -2.460158425557116 -19.575521399610434
ltibia 30.037407909669035
lfoot -5.279628020878235 -0.12081246156150793
ltoes 2.8373667181844335
rfemur -0.6168870113683056 2.8483741094649613 25.296181262854574
rtibia 59.02547941486269
rfoot 11.55912739126422 0.25617528230945386
rtoes 8.301629808723334
lowerback 9.46784878391782 2.926197968631005 2.8804591106680917
upperback 0.4335325570816446 4.19720536886246 0.6872078071856565
thorax -4.7529056004385914 2.0261693315547102 -0.9584764670673099
lowerneck -16.231555877288386 -2.9832454854067882 -1.9495418406179128
upperneck 20.530398305959785 -3.948385469493096 1.6365961625240772
head 9.21587550227884 -1.8404541668496386 0.37559227273284657
lclavicle -6.625720030957504e-16 2.0958066239751417e-15
lhumerus -37.22714292777681 10.156380468009498 79.96092654476534
lradius 18.546423985901917
lwrist 1.4317080990598914
lhand -26.803160186625373 23.54519175343241
lfingers 7.12502
lthumb -0.2298822795578318 53.50429330864685
rclavicle -6.625720030957504e-16 2.0958066239751417e-15
rhumerus -25.73558308072011 -14.66968672135079 -81.05852191856778
rradius 28.613861645322395
rwrist 4.762869933385385
rhand -17.63115953559502 23.706322454710214
rfingers 7.12502
rthumb 8.626253559748358 -6.102692127258173
91
root 0.7268691049064553 17.831231362583807 40.22624946847008 -3.6387008763442816 -5.635279665322871 -1.0630164607224735
lfemur -14.054000211824533 -2.7022024595638867 -21.44929444593876
ltibia 29.198896439745994
lfoot -7.366468115344733 0.8440762052459865
ltoes 2.728015612337248
rfemur -6.267423798656531 1.756860419389731 23.516340843417304
rtibia 64.80736382554221
rfoot 10.314779233008093 -2.82826402779537
rtoes 10.406663888929163
lowerback 9.708615212504979 2.6507285939681218 1.7034987629542222
upperback 0.5483636233408378 3.707566047710086 0.5102550194137436
thorax -4.823821625671287 1.8055290835359474 -0.5694502351161227
lowerneck -16.272575832333683 -2.8801693974874976 -2.0360987827198884
upperneck 20.46633874725407 -3.7846577188223223 1.5297857703899989
head 9.193597143525801 -1.7753431215911446 0.37888934509688843
lclavicle -1.1643854678691589e-15 1.6336898484822959e-15
lhumerus -36.25061142094855 8.570494238508207 80.66416152001662
lradius 19.284078319188083
lwrist 2.6970893918156724
lhand -27.935429593117856 22.39420343870952
lfingers 7.12502
lthumb -1.3234390157913616 52.34556117399634
rclavicle -1.1643854678691589e-15 1.6336898484822959e-15
rhumerus -26.22293332308383 -15.427375526814135 -81.11588112889555
rradius 27.954654205610748
rwrist 5.591473042092859
rhand -17.46424642501465 23.26400033133867
rfingers 7.12502
rthumb 8.787342827795609 -6.536828117535995
92
root 0.764556045501932 17.864947322723584 41.03855205240167 -3.859729719698054 -5.291457564930459 -0.25744569666502337
lfemur -11.173688410631001 -2.942227423220861 -22.722211849897377
ltibia 28.703049919662384
lfoot -8.998240540206586 1.7672051145632783
ltoes 2.5873143152996056
rfemur -11.2471540711495 0.8150899111785472 22.543956389007292
rtibia 68.94056110760138
rfoot 6.0364649717494 -5.133080210892058
rtoes 10.659112261874318
lowerback 9.8896702689095 2.294389435318312 0.8875526430613128
upperback 0.6805732991194406 3.1442795073382506 0.4716303105062607
thorax -4.833242236510971 1.5435043460114126 -0.08473143731898924
lowerneck -16.234723565722803 -2.7742252176241555 -2.147094937208973
upperneck 20.48123053393035 -3.6107657255406678 1.456042057824956
head 9.191327096282217 -1.70770022329055 0.40182188359274695
lclavicle -1.0610474362254645e-15 1.7288640340517236e-15
lhumerus -34.65867269463358 7.123989264292343 81.32701153225345
lradius 19.988264982169547
lwrist 3.385134676057559
lhand -28.652182373327992 21.304953191596844
lfingers 7.12502
lthumb -2.015706397738737 51.252828346807625
rclavicle -1.0610474362254645e-15 1.7288640340517236e-15
rhumerus -26.5428769466024 -16.02550455697931 -81.04148854722294
rradius 27.448409428772564
rwrist 6.3661544371289045
rhand -17.242767925123022 22.866406182047264
rfingers 7.12502
rthumb 9.001073940499646 -6.925024190935087
93
root 0.7616146488594489 17.86621816828632 40.55063099209243 -4.04056592758313 -4.882778179336679 0.07535997669338501
lfemur -9.428640483834302 -3.383876092048209 -24.14465739406047
ltibia 27.16142123260071
lfoot -10.948678192140484 1.986143665091846
ltoes 1.912164071165035
rfemur -16.81886553910667 -0.13928071485442572 21.64140912757501
rtibia 69.37448689006374
rfoot 0.23780412751430902 -6.436127114006007
rtoes 9.103972250798329
lowerback 9.981118549352347 1.7316345048774453 -0.01703445440715412
upperback 0.7620962195493313 2.3030942513571375 0.46295715248028335
thorax -4.861618449614054 1.1468480232782623 0.2589050225795786
lowerneck -16.22903345526949 -2.7210900826799795 -2.376542020868143
upperneck 20.495786242544398 -3.5132351517408673 1.39180780847109
head 9.186728544694237 -1.6709000365914108 0.4277264486717264
lclavicle -2.067636630067038e-15 8.015964201758879e-16
lhumerus -33.15203016486719 5.198744980546989 81.75914900770384
lradius 20.377863096220217
lwrist 3.471585693048854
lhand -28.962458809967927 20.462675456449176
lfingers 7.12502
lthumb -2.3153921721172455 50.413190200169154
rclavicle -2.067636630067038e-15 8.015964201758878e-16
rhumerus -27.154125752957636 -16.83064756072327 -81.12364909379502
rradius 26.949416675994993
rwrist 6.341282980606687
rhand -17.130910013531857 22.38433542362607
rfingers 7.12502
rthumb 9.109007195371886 -7.398503286633014
